PathFileType	4	(X/Y/Z)	 s09c0302.trc
DataRate	CameraRate	NumFrames	NumMarkers	Units	OrigDataRate	OrigDataStartFrame	OrigNumFrames
200	200	5	50	mm	200	1501	2000
Frame#	Time	racr			lacr			c7			jug			rlel			rdr			llel			ldr			s2			lic			ric			lasi			rasi			rpsi			lpsi			rgt			lgt			rth1			rth2			rth3			rth4			rlfc			rmfc			rsh1			rsh2			rsh3			rsh4			rlmal			rmmal			rcal			rtoe			rmt5			lth1			lth2			lth4			lth3			llfc			lmfc			llmal			lmmal			lcal			lmt5			lsh1			lsh2			lsh3			lsh4			ltoe			SBIKE			LBIKE			RBIKE			
		X1	Y1	Z1	X2	Y2	Z2	X3	Y3	Z3	X4	Y4	Z4	X5	Y5	Z5	X6	Y6	Z6	X7	Y7	Z7	X8	Y8	Z8	X9	Y9	Z9	X10	Y10	Z10	X11	Y11	Z11	X12	Y12	Z12	X13	Y13	Z13	X14	Y14	Z14	X15	Y15	Z15	X16	Y16	Z16	X17	Y17	Z17	X18	Y18	Z18	X19	Y19	Z19	X20	Y20	Z20	X21	Y21	Z21	X22	Y22	Z22	X23	Y23	Z23	X24	Y24	Z24	X25	Y25	Z25	X26	Y26	Z26	X27	Y27	Z27	X28	Y28	Z28	X29	Y29	Z29	X30	Y30	Z30	X31	Y31	Z31	X32	Y32	Z32	X33	Y33	Z33	X34	Y34	Z34	X35	Y35	Z35	X36	Y36	Z36	X37	Y37	Z37	X38	Y38	Z38	X39	Y39	Z39	X40	Y40	Z40	X41	Y41	Z41	X42	Y42	Z42	X43	Y43	Z43	X44	Y44	Z44	X45	Y45	Z45	X46	Y46	Z46	X47	Y47	Z47	X48	Y48	Z48	X49	Y49	Z49	X50	Y50	Z50	
1501	7.5050	747.807353	1354.080866	-129.880456	671.011855	1322.510737	-468.956049	708.223324	1381.504247	-283.292155	711.341999	1248.822962	-290.377885	664.494848	1110.713681	-43.244630	725.672669	866.721937	-62.447555	536.506535	1067.725757	-497.280147	703.068154	888.226102	-434.412347	239.480395	1187.334052	-196.391710	350.154799	1190.782347	-366.578849	400.178378	1139.160624	-79.702963	383.910840	1121.575628	-356.871891	422.757876	1082.210216	-113.054144	283.330200	1203.388008	-139.307871	263.192765	1226.852577	-242.603625	333.845237	1001.796830	-44.193687	307.390307	1084.154247	-416.608876	362.892172	875.859539	-59.236359	397.657557	795.550839	-70.203388	380.999338	708.793460	-77.934141	425.851218	799.617680	-93.210201	374.474772	612.535711	-103.475285	344.968151	596.879485	-199.489344	308.251895	535.282205	-66.520689	289.937580	447.982073	-76.883967	232.024130	382.668946	-72.570052	313.602180	438.905927	-107.385338	179.916902	293.907250	-69.378376	186.252192	301.218170	-145.916672	101.964897	312.232973	-110.662130	288.057700	124.019252	-131.395125	221.599207	167.047886	-61.064148	418.887850	997.284095	-425.693325	499.763271	968.753011	-421.799440	520.707294	996.204059	-405.890576	558.037682	900.918562	-428.415392	621.055272	819.650559	-416.860611	637.821192	800.008546	-316.226538	343.490797	572.004040	-411.056464	360.695264	577.800608	-337.026342	257.718982	568.624894	-371.390901	398.153832	464.618902	-431.840593	546.586033	752.584014	-433.025906	496.785468	681.391777	-421.878704	415.688061	645.230845	-418.323111	516.987399	662.462102	-394.474273	489.669415	446.260935	-362.641046	-64.358043	852.590045	-237.844933	20.921349	85.692381	-441.909801	21.135031	84.204968	-43.646935	
1502	7.5100	748.188903	1354.432541	-132.906409	668.883974	1323.086000	-471.060560	707.657683	1382.435914	-286.119565	710.193362	1249.765431	-293.110709	665.789043	1111.415873	-45.198211	725.934999	866.725452	-62.576931	533.882159	1067.514385	-496.135099	702.609040	888.510518	-434.349217	239.769621	1188.829257	-195.650964	349.256068	1192.243760	-366.375336	400.692888	1141.504480	-79.687610	383.280845	1122.878201	-356.917925	423.311274	1084.427102	-112.768020	283.824796	1205.146581	-138.707673	263.327408	1228.061205	-242.012984	335.309626	1003.573861	-43.211265	305.848680	1084.829146	-415.631304	366.087725	877.360383	-58.970568	401.704225	797.558343	-70.350864	386.253146	710.639574	-78.084752	429.970920	802.090169	-93.166521	379.189385	614.002953	-103.601355	349.657113	598.450137	-198.957860	310.481437	538.268451	-66.030437	289.579679	451.667364	-76.329659	229.531257	388.008676	-72.218706	311.933539	441.421544	-108.345369	174.882833	300.676875	-69.055353	182.288600	307.369244	-145.757456	97.491183	320.575906	-110.613255	278.927712	128.391787	-131.126391	213.518642	173.025926	-60.895598	415.904363	995.320458	-424.319445	494.943983	966.123866	-423.385294	518.388566	993.611804	-406.359888	554.271039	897.789077	-427.696175	618.469063	817.238080	-416.290771	635.554451	798.235312	-315.476197	346.813372	563.102374	-410.615322	364.359955	569.755757	-336.534699	261.060031	556.726153	-370.767038	404.935691	458.456404	-432.174387	545.680389	748.316435	-432.462406	497.387028	676.162056	-421.413896	417.102491	638.133040	-417.832079	518.012825	657.727153	-393.788431	497.461646	443.645728	-363.429797	-64.384844	852.578155	-237.886365	20.910244	85.549816	-441.937358	21.198826	84.181265	-43.601873	
1503	7.5150	748.355213	1355.115171	-135.650440	667.124967	1323.263272	-473.144895	707.078564	1383.441085	-289.137162	709.059636	1250.768489	-295.723912	667.243705	1112.198789	-46.954246	726.154692	866.798507	-62.734206	531.865850	1067.251629	-494.951638	702.151779	888.735620	-434.372113	239.304719	1190.898803	-194.199303	348.551533	1193.312795	-366.506759	401.111869	1144.061726	-79.764482	382.924374	1123.948048	-356.797225	423.872558	1086.829209	-112.406315	284.174215	1206.980979	-138.488569	263.581596	1228.288027	-242.649488	336.760507	1005.538864	-42.283660	304.409525	1085.056507	-414.714465	369.448958	879.030278	-58.640640	406.045349	799.767433	-70.526861	391.709776	712.688065	-78.405305	434.246959	804.839052	-93.213952	384.516182	615.689789	-103.702399	354.744526	600.142008	-198.599312	313.253413	541.402631	-65.644499	289.545147	455.643805	-76.140622	227.582818	393.839537	-71.934404	311.516747	444.764329	-107.940811	170.470203	307.886912	-68.574497	178.991993	312.921189	-145.078602	93.358393	329.906994	-110.357719	270.217213	133.244262	-130.909279	205.857732	179.519783	-60.722876	412.806206	992.531664	-422.533162	492.355734	962.546946	-422.386120	515.809575	990.255423	-407.035817	550.057116	893.545652	-426.900495	615.400178	813.937636	-415.436650	632.701817	795.250239	-315.062073	349.662541	553.640139	-409.977173	366.949086	560.865982	-335.770152	264.070830	544.160511	-369.779120	411.171197	451.577657	-432.526389	544.275720	743.357128	-432.092722	497.527538	669.967819	-420.955442	418.331232	630.046303	-417.159584	518.411721	652.133093	-393.495278	504.727816	440.423144	-364.480522	-64.421958	852.575469	-237.902496	20.929590	85.514620	-441.931470	21.225746	84.191426	-43.570097	
1504	7.5200	748.368070	1355.960572	-138.247454	665.664904	1323.114075	-475.068843	706.540442	1384.677175	-292.190925	707.980711	1251.987979	-297.974899	668.405404	1113.023368	-48.410451	727.255403	867.255702	-62.150832	529.887743	1067.041418	-493.622751	701.637262	888.885460	-434.492006	240.915827	1191.453773	-195.212135	348.098759	1194.001285	-366.950147	401.510749	1146.719743	-79.862625	382.538763	1124.709371	-356.647244	423.650403	1089.290323	-112.557169	284.479230	1208.728207	-138.581697	263.588122	1229.654395	-242.537652	338.244259	1007.637003	-41.439195	303.054352	1084.764366	-413.712454	372.881035	880.726679	-58.286172	410.539640	802.136458	-70.657731	397.496290	714.757110	-78.816977	438.591194	807.743943	-93.326064	390.207889	617.405229	-103.778264	360.182845	602.062057	-198.360838	316.532613	544.738418	-65.419378	289.951732	459.839430	-76.077963	226.077159	400.045867	-71.720814	311.562026	448.333520	-107.833551	166.392748	315.452031	-68.334368	175.266450	320.192167	-145.149107	89.864795	339.335243	-110.168927	261.620655	138.572209	-130.732519	198.722816	186.569836	-60.492543	409.642333	989.375656	-421.254327	489.168520	958.692020	-421.910339	512.494163	986.395371	-408.433527	545.690545	888.734120	-426.334046	611.694784	809.723011	-414.951079	629.618501	791.615288	-314.683493	352.119756	543.530414	-409.242294	370.070438	551.366782	-335.181375	267.003737	530.870514	-368.541737	416.952282	444.050364	-432.924045	542.449786	737.231514	-431.249311	497.259191	663.078997	-420.510144	419.029270	621.306147	-416.567288	518.581904	645.914557	-392.934965	511.252467	436.626564	-365.535832	-64.468491	852.543081	-237.935625	20.927505	85.448976	-441.923788	21.243516	84.194962	-43.554610	
1505	7.5250	748.204947	1356.943293	-140.720840	664.378350	1322.708569	-477.097891	705.931296	1385.759923	-295.193193	707.054982	1253.059380	-300.085742	669.969690	1113.610342	-49.715620	728.181622	867.390214	-62.540487	528.210634	1066.831089	-492.873783	701.079260	888.954902	-434.720504	239.968305	1193.861872	-194.236528	347.748571	1194.177448	-367.366941	401.813465	1149.333833	-80.055581	382.165826	1124.964049	-356.467245	423.974793	1091.818474	-112.076080	284.661305	1210.368867	-138.975618	263.619569	1230.831304	-242.710220	339.670548	1009.715776	-40.652004	301.770647	1084.021855	-412.827061	376.306660	882.498349	-57.897866	415.127543	804.571122	-70.709775	403.484905	717.040011	-79.122061	442.984943	810.659743	-93.508513	396.045138	619.290727	-104.107364	365.797230	604.156258	-198.305055	320.185781	548.236269	-65.342747	290.853796	464.220348	-76.070043	225.068913	406.556764	-71.542771	312.085371	452.096800	-107.801571	162.820907	323.502866	-68.108318	171.979021	327.966661	-145.182146	86.762591	349.374582	-110.090005	253.669604	144.426654	-130.432143	191.844599	194.051504	-60.364469	406.564742	985.900513	-420.239755	485.678761	954.281781	-421.882224	507.851554	982.139081	-410.964309	541.307748	883.615115	-425.775417	607.537649	804.808970	-414.571829	626.223183	787.409352	-314.478724	354.571462	532.799518	-408.509431	372.154784	541.074941	-334.270047	269.695238	517.201574	-367.682128	422.487419	435.995741	-433.223242	540.053314	730.750406	-430.804088	496.734279	655.561116	-419.969413	419.700654	611.822082	-415.763342	518.672514	638.870994	-392.754029	517.769864	431.973648	-366.705133	-64.501821	852.498088	-237.997698	20.902305	85.384423	-441.929445	21.219154	84.166095	-43.585421	
